<svg xmlns="http://www.w3.org/2000/svg" width="17" height="19" xmlns:v="https://vecta.io/nano"><path d="M8.726.103l.02.022 1.61 1.612c.123.123.123.323 0 .445s-.323.123-.445 0l-.222-.223h-.87l-.002 5.226c.802.04 1.522.234 2.06.527.609.33.985.787.985 1.29s-.376.959-.984 1.29a3.87 3.87 0 0 1-.657.277h1.109c0-.145.117-.263.262-.263s.263.117.263.263c0 .574-.467 1.021-1.052 1.308a3.79 3.79 0 0 1-.384.162h.912c0-.145.117-.262.262-.262s.263.117.263.262c0 .574-.467 1.021-1.052 1.308-.53.26-1.223.427-1.983.464v4.863c0 .084-.033.164-.092.223s-.139.092-.223.092-.164-.033-.223-.092-.092-.139-.092-.223v-4.863c-.763-.036-1.458-.203-1.989-.464-.585-.287-1.052-.733-1.052-1.308 0-.145.118-.262.263-.262s.262.117.263.262h.913a3.78 3.78 0 0 1-.385-.162c-.585-.287-1.052-.734-1.052-1.308 0-.145.118-.263.263-.263s.263.117.263.263h1.109a3.89 3.89 0 0 1-.656-.277c-.609-.331-.984-.787-.984-1.291s.375-.958.983-1.289c.539-.293 1.259-.486 2.061-.527l.002-5.226h-.875l-.222.223c-.123.123-.322.123-.445 0s-.123-.322 0-.445L8.277.102C8.336.043 8.416.01 8.5.01a.31.31 0 0 1 .101.017c.047.015.089.041.125.077zM2.713 1.704c.061.018.114.054.153.101l1.61 1.612c.123.123.123.323 0 .445s-.323.123-.445 0l-.222-.223h-.87v6.766c0 .174-.141.315-.315.315s-.315-.141-.315-.315V3.639h-.876l-.222.223c-.123.123-.322.123-.445 0s-.123-.322 0-.445l1.633-1.634c.059-.059.139-.092.223-.092.032 0 .063.005.093.014zm11.761 1.68c.06.018.113.054.152.101l1.61 1.612c.123.123.123.323 0 .445s-.323.123-.446 0l-.223-.223-.87-.001v1.727c0 .174-.141.315-.315.315s-.315-.141-.315-.315V5.319l-.876-.001-.223.222c-.123.123-.322.123-.445 0s-.123-.322 0-.445l1.633-1.633c.059-.059.139-.092.223-.092.032 0 .063.005.093.014zm.224 5.342c0-.174-.141-.315-.315-.315s-.315.141-.315.315v6.72c0 .174.141.315.315.315s.315-.141.315-.315v-6.72zm-11.76 3.36c0-.174-.141-.315-.315-.315s-.315.141-.315.315v5.04c0 .174.141.315.315.315s.315-.141.315-.315v-5.04z"/></svg>