<svg width="17" height="19" viewBox="0 0 17 19" fill="none" xmlns="http://www.w3.org/2000/svg">
<path fill-rule="evenodd" clip-rule="evenodd" d="M8.74593 0.125476C8.73958 0.117788 8.73285 0.110373 8.72574 0.103263C8.69061 0.0681361 8.64804 0.0421619 8.60173 0.0268759C8.5693 0.0158049 8.53497 0.00999986 8.50005 0.00999451C8.41645 0.00998174 8.33628 0.0431966 8.27719 0.102324L6.64419 1.73632C6.52121 1.85938 6.52127 2.05882 6.64433 2.1818C6.76738 2.30478 6.96683 2.30472 7.0898 2.18166L8.18768 1.08312L8.18512 7.1879C7.38313 7.22837 6.66327 7.42191 6.12484 7.71455C5.51725 8.04491 5.14301 8.50027 5.14301 9.00099C5.14301 9.50361 5.51707 9.95901 6.12599 10.2895C6.73295 10.6189 7.57227 10.823 8.50001 10.823C9.42779 10.823 10.2674 10.6187 10.8752 10.2894C11.4826 9.95918 11.858 9.50388 11.858 9.00199C11.858 8.50025 11.4828 8.04392 10.874 7.71447C10.3364 7.42186 9.61682 7.2284 8.81512 7.18791L8.81768 1.08881L9.91012 2.1826C10.0331 2.30569 10.2325 2.30581 10.3556 2.18287C10.4787 2.05993 10.4788 1.86048 10.3559 1.73739L8.74593 0.125476ZM8.185 7.479L8.18501 7.44825C7.42073 7.48853 6.74488 7.67348 6.249 7.943C5.677 8.254 5.403 8.64 5.403 9.001C5.403 9.364 5.677 9.75 6.25 10.061C6.812 10.366 7.607 10.563 8.5 10.563C9.393 10.563 10.188 10.366 10.751 10.061C11.323 9.75 11.598 9.364 11.598 9.002C11.598 8.64 11.323 8.253 10.75 7.943C10.255 7.67349 9.57926 7.48853 8.81501 7.44826L8.815 7.479H8.185Z" fill="white"/>
<path d="M2.62005 1.68999C2.65195 1.69 2.68335 1.69484 2.71326 1.70412C2.77385 1.72221 2.82678 1.75804 2.86603 1.80558L4.47587 3.41739C4.59881 3.54048 4.59869 3.73993 4.4756 3.86287C4.35251 3.98581 4.15306 3.98569 4.03012 3.8626L2.938 2.76914V10.406C2.938 10.58 2.79697 10.721 2.623 10.721C2.44903 10.721 2.308 10.58 2.308 10.406V2.7628L1.2098 3.86167C1.08683 3.98472 0.887379 3.98478 0.764327 3.8618C0.641274 3.73882 0.641213 3.53938 0.76419 3.41632L2.39719 1.78232C2.45628 1.7232 2.53645 1.68998 2.62005 1.68999Z" fill="white"/>
<path d="M14.3801 3.36999C14.4121 3.37 14.4436 3.37488 14.4736 3.38421C14.534 3.40233 14.5868 3.43812 14.626 3.48557L16.2359 5.09739C16.3588 5.22048 16.3587 5.41993 16.2356 5.54287C16.1125 5.66581 15.9131 5.66569 15.7901 5.5426L14.698 4.44913V7.04599C14.698 7.21996 14.557 7.36099 14.383 7.36099C14.209 7.36099 14.068 7.21996 14.068 7.04599V4.44247L12.9697 5.54073C12.8467 5.66375 12.6473 5.66375 12.5243 5.54073C12.4012 5.41772 12.4012 5.21827 12.5243 5.09526L14.1573 3.46226C14.2164 3.40316 14.2965 3.36997 14.3801 3.36999Z" fill="white"/>
<path d="M14.383 8.41099C14.557 8.41099 14.698 8.55202 14.698 8.72599V15.446C14.698 15.62 14.557 15.761 14.383 15.761C14.209 15.761 14.068 15.62 14.068 15.446V8.72599C14.068 8.55202 14.209 8.41099 14.383 8.41099Z" fill="white"/>
<path d="M2.623 11.771C2.79697 11.771 2.938 11.912 2.938 12.086V17.126C2.938 17.3 2.79697 17.441 2.623 17.441C2.44903 17.441 2.308 17.3 2.308 17.126V12.086C2.308 11.912 2.44903 11.771 2.623 11.771Z" fill="white"/>
<path d="M8.28026 18.8967C8.22118 18.8377 8.188 18.7575 8.188 18.674V13.8112C7.4249 13.7751 6.72974 13.608 6.19878 13.3476C5.61346 13.0605 5.1465 12.6142 5.1465 12.04C5.1465 11.895 5.26402 11.7775 5.409 11.7775C5.55397 11.7775 5.6715 11.895 5.6715 12.04C5.6715 12.3028 5.89654 12.6146 6.42997 12.8762C6.9462 13.1294 7.67774 13.2935 8.5 13.2935C9.3222 13.2935 10.0537 13.1292 10.5699 12.8757C11.1034 12.6139 11.3285 12.3019 11.3285 12.039C11.3285 11.894 11.446 11.7765 11.591 11.7765C11.736 11.7765 11.8535 11.894 11.8535 12.039C11.8535 12.6131 11.3866 13.0597 10.8013 13.347C10.2717 13.607 9.57879 13.7742 8.818 13.8109V18.674C8.818 18.7575 8.78481 18.8377 8.72574 18.8967C8.66666 18.9558 8.58654 18.989 8.503 18.989C8.41945 18.989 8.33933 18.9558 8.28026 18.8967Z" fill="white"/>
<path d="M5.6715 10.569C5.6715 10.424 5.55397 10.3065 5.409 10.3065C5.26402 10.3065 5.1465 10.424 5.1465 10.569C5.1465 11.1436 5.6133 11.5901 6.19873 11.8774C6.80128 12.1731 7.61526 12.3485 8.5 12.3485C9.3848 12.3485 10.1988 12.1728 10.8013 11.877C11.3866 11.5896 11.8535 11.1431 11.8535 10.569C11.8535 10.424 11.736 10.3065 11.591 10.3065C11.446 10.3065 11.3285 10.424 11.3285 10.569C11.3285 10.8319 11.1034 11.1439 10.5699 11.4057C10.0537 11.6592 9.3222 11.8235 8.5 11.8235C7.67774 11.8235 6.94622 11.6594 6.43002 11.4061C5.8967 11.1444 5.6715 10.8324 5.6715 10.569Z" fill="white"/>
</svg>
