<svg viewBox="0 0 21 20" fill="none" xmlns="http://www.w3.org/2000/svg">
<path fill-rule="evenodd" clip-rule="evenodd" d="M0.25 1C0.25 0.585786 0.585786 0.25 1 0.25H1.89C2.51733 0.250347 3.1261 0.46517 3.61455 0.858828C4.10297 1.25247 4.44214 1.80126 4.57577 2.41416L4.7173 3.063H20C20.2211 3.063 20.4309 3.16054 20.5734 3.32957C20.7159 3.49859 20.7766 3.72188 20.7392 3.93978L19.2392 12.6858C19.1775 13.0458 18.8653 13.309 18.5 13.309H6.021C5.66838 13.309 5.36338 13.0634 5.28823 12.7188L3.11023 2.73384C3.04949 2.45523 2.8953 2.20568 2.67328 2.02674C2.45137 1.84789 2.175 1.75025 1.89 1.75M5.04449 4.563L6.62504 11.809H17.8677L19.1104 4.563H5.04449ZM0.25 1C0.25 1.41421 0.25 1.75 1.82746 1.7214ZM1.82746 1.7214L1.89 1.75ZM8 15.62C7.66848 15.62 7.35054 15.7517 7.11612 15.9861C6.8817 16.2205 6.75 16.5385 6.75 16.87C6.75 17.2015 6.8817 17.5195 7.11612 17.7539C7.35054 17.9883 7.66848 18.12 8 18.12C8.33152 18.12 8.64946 17.9883 8.88388 17.7539C9.1183 17.5195 9.25 17.2015 9.25 16.87C9.25 16.5385 9.1183 16.2205 8.88388 15.9861C8.64946 15.7517 8.33152 15.62 8 15.62ZM6.05546 14.9255C6.57118 14.4097 7.27066 14.12 8 14.12C8.72934 14.12 9.42882 14.4097 9.94454 14.9255C10.4603 15.4412 10.75 16.1407 10.75 16.87C10.75 17.5993 10.4603 18.2988 9.94454 18.8145C9.42882 19.3303 8.72935 19.62 8 19.62C7.27065 19.62 6.57118 19.3303 6.05546 18.8145C5.53973 18.2988 5.25 17.5993 5.25 16.87C5.25 16.1407 5.53973 15.4412 6.05546 14.9255ZM17 15.624C16.6685 15.624 16.3505 15.7557 16.1161 15.9901C15.8817 16.2245 15.75 16.5425 15.75 16.874C15.75 17.2055 15.8817 17.5235 16.1161 17.7579C16.3505 17.9923 16.6685 18.124 17 18.124C17.3315 18.124 17.6495 17.9923 17.8839 17.7579C18.1183 17.5235 18.25 17.2055 18.25 16.874C18.25 16.5425 18.1183 16.2245 17.8839 15.9901C17.6495 15.7557 17.3315 15.624 17 15.624ZM15.0555 14.9295C15.5712 14.4137 16.2707 14.124 17 14.124C17.7293 14.124 18.4288 14.4137 18.9445 14.9295C19.4603 15.4452 19.75 16.1447 19.75 16.874C19.75 17.6033 19.4603 18.3028 18.9445 18.8185C18.4288 19.3343 17.7293 19.624 17 19.624C16.2707 19.624 15.5712 19.3343 15.0555 18.8185C14.5397 18.3028 14.25 17.6033 14.25 16.874C14.25 16.1447 14.5397 15.4452 15.0555 14.9295Z" fill="white"/>
</svg>
