<svg xmlns="http://www.w3.org/2000/svg" width="18" height="18" fill="#fff" fill-rule="evenodd" xmlns:v="https://vecta.io/nano"><path d="M5.515 1.984a1.62 1.62 0 0 0-.579.462l-.002-.001a1.93 1.93 0 0 0-.282.477 1.05 1.05 0 0 0-.087.34c0 .128.031.229.077.301l-.059.12-.244.463c-.022.063-.035.12-.029.177s.032.105.08.141a.7.7 0 0 0 .162.093c-.028.507-.016.776.017.921.017.075.04.124.075.155a.17.17 0 0 0 .098.04 1.03 1.03 0 0 0 .189.009l.258-.015V6.3l.051.052c.019.02.301.287.951.287h.125c.722-.038 1.016-.342 1.035-.362l.068-.084-.019-.072-.001-.003-.002-.007-.005-.022-.019-.076-.053-.252a2.51 2.51 0 0 1-.044-.64c.247-.177.76-.656.76-1.475 0-.56-.168-1.016-.48-1.332s-.763-.486-1.316-.486a1.62 1.62 0 0 0-.725.156zm-.581 1.29a.33.33 0 0 1 .014-.066c.013-.046.029-.091.048-.135a1.59 1.59 0 0 1 .216-.365c.202-.255.528-.495 1.028-.495.46 0 .816.134 1.057.377s.372.603.372 1.07c0 .703-.507 1.097-.671 1.192l-.069.052-.016.081a2.16 2.16 0 0 0 .003.652l.087.461c-.103.069-.322.172-.716.194a1.38 1.38 0 0 1-.74-.142v-.865l-.2.016h-.002a3.79 3.79 0 0 1-.439.025l-.007-.35.024-.548.016-.218-.2.016-.02-.003a3.21 3.21 0 0 1 .197-.353l.122-.263.122-.193-.215-.061c-.005-.016-.011-.041-.011-.079zm6.331 1.386a1.62 1.62 0 0 1 .725-.156l.002.001c.554 0 1.004.17 1.316.486s.48.772.48 1.332c0 .819-.513 1.298-.76 1.475a2.51 2.51 0 0 0 .044.64l.053.252.019.076.005.022.002.007.001.003.019.072-.068.084c-.018.02-.312.324-1.035.362h-.125c-.65 0-.931-.267-.951-.287l-.051-.052v-.633l-.258.015c-.083.001-.152-.002-.189-.009-.025-.003-.064-.009-.098-.04s-.058-.081-.075-.155c-.033-.145-.045-.414-.017-.921a.7.7 0 0 1-.162-.093.2.2 0 0 1-.08-.141.41.41 0 0 1 .029-.177c.044-.125.135-.28.244-.463l.059-.12c-.046-.071-.077-.173-.077-.301 0-.072.028-.196.087-.34a1.93 1.93 0 0 1 .282-.477 1.62 1.62 0 0 1 .579-.462zm-.567 1.225a.33.33 0 0 0-.014.066l-.001-.002a.23.23 0 0 0 .017.092l.209.049-.122.193-.122.263a1.4 1.4 0 0 0-.177.356l.2-.016-.016.218-.024.548.007.35a3.79 3.79 0 0 0 .438-.025h.002l.2-.016v.865a1.38 1.38 0 0 0 .74.142c.394-.022.613-.125.716-.194a4.51 4.51 0 0 1-.087-.461 2.16 2.16 0 0 1-.003-.652l.016-.081.069-.052c.164-.095.671-.489.671-1.192 0-.467-.132-.827-.372-1.07s-.595-.376-1.055-.376c-.5 0-.826.24-1.028.495a1.59 1.59 0 0 0-.216.365c-.022.053-.038.099-.048.135zM9.557 4.483a3.5 3.5 0 0 1 2.473-1.025h.002a3.5 3.5 0 0 1 3.498 3.499 3.5 3.5 0 0 1-3.499 3.498 3.5 3.5 0 0 1-2.474-5.972zm-.593 1.191a3.3 3.3 0 0 0-.235 1.281 3.3 3.3 0 0 0 .946 2.372c.307.313.674.561 1.078.731a3.29 3.29 0 0 0 2.554 0 3.3 3.3 0 0 0 1.078-.731 3.32 3.32 0 0 0 .712-1.091 3.3 3.3 0 0 0 .235-1.281 3.3 3.3 0 0 0-.235-1.281c-.162-.407-.405-.778-.712-1.091a3.3 3.3 0 0 0-4.71 0 3.3 3.3 0 0 0-.712 1.091z"/><path d="M10.32 3.021C9.793 1.273 8.17 0 6.25 0a4.25 4.25 0 1 0 0 8.5c.596 0 1.165-.123 1.68-.345.527 1.748 2.15 3.021 4.07 3.021a4.25 4.25 0 0 0 0-8.5c-.596 0-1.165.123-1.68.345zm-6.895-1.24A3.75 3.75 0 0 0 6.25 8c.558 0 1.087-.122 1.563-.34l-.032-.219a3.49 3.49 0 0 1-1.501.337A3.5 3.5 0 0 1 2.782 4.28a3.5 3.5 0 0 1 6.879-.903l.204-.127a3.75 3.75 0 0 0-6.441-1.469zm6.063 1.716C9.137 2.051 7.834.978 6.28.978c-.438-.008-.874.073-1.281.236a3.3 3.3 0 0 0-1.821 4.344A3.3 3.3 0 0 0 6.28 7.583a3.29 3.29 0 0 0 1.481-.35l-.011-.306c0-1.408.684-2.656 1.738-3.429zm-.14.777a3.75 3.75 0 0 0 5.303 5.303 3.75 3.75 0 0 0-5.303-5.303zm-8.86 6.24a.3.3 0 0 1 .212-.088h1.6a.3.3 0 0 1 .3.3v.338h2.14a1.5 1.5 0 0 1 1.061.439l.873.873H9.45a1.2 1.2 0 0 1 1.198 1.124l5.232-2.405.007-.004a1.2 1.2 0 0 1 1.204 2.067l-.024.016-7.025 4.368-.025.016a2.29 2.29 0 0 1-1.168.318c-.352 0-.686-.08-.984-.221l-3.68-1.686a.5.5 0 0 0-.208-.045H2.6v.402a.3.3 0 0 1-.3.3H.7a.3.3 0 1 1 0-.6H2v-5H.7a.3.3 0 0 1-.212-.512zm2.112 4.81v-3.186l5.516 4.972-3.681-1.687a1.1 1.1 0 0 0-.458-.099H2.6zm0-3.186v-.474h2.14a.9.9 0 0 1 .637.263l.961.961c.028.029.062.05.097.065a.3.3 0 0 0 .115.023h2.9a.6.6 0 0 1 .54.861.3.3 0 0 0-.044.076.6.6 0 0 1-.496.262h-2.9a.3.3 0 1 0 0 .6h2.9a1.2 1.2 0 0 0 .989-.52l5.706-2.623.019-.009a.6.6 0 0 1 .58 1.045l-.009.006-7.04 4.378c-.257.147-.549.224-.845.224a1.7 1.7 0 0 1-.73-.164L2.6 12.138z"/></svg>