<svg xmlns="http://www.w3.org/2000/svg" viewBox="0 0 40 40" xmlns:v="https://vecta.io/nano"><path d="M16.509 22.32a2.885 2.885 0 0 1-.96-.76l.68-.64a2.12 2.12 0 0 0 1.64.76 1.706 1.706 0 0 0 .96-.24.905.905 0 0 0 .36-.8v-.24a.775.775 0 0 0-.44-.76 1.858 1.858 0 0 0-.92-.24h-.6v-.84h.6a1.691 1.691 0 0 0 .8-.2.679.679 0 0 0 .36-.64v-.2a.727.727 0 0 0-.32-.64 1.575 1.575 0 0 0-.8-.2 1.855 1.855 0 0 0-.84.16 2.864 2.864 0 0 0-.76.52l-.64-.64a3.726 3.726 0 0 1 1.04-.72 3.177 3.177 0 0 1 1.28-.24 3.47 3.47 0 0 1 1.12.2 1.932 1.932 0 0 1 .8.56 1.256 1.256 0 0 1 .28.84v.36a1.17 1.17 0 0 1-.32.76 1.96 1.96 0 0 1-.8.44 1.886 1.886 0 0 1 .6.24 1.498 1.498 0 0 1 .52.48 1.047 1.047 0 0 1 .2.68v.44a1.724 1.724 0 0 1-.32.96 2.172 2.172 0 0 1-.88.68 3.116 3.116 0 0 1-1.24.24 5.585 5.585 0 0 1-1.4-.32zm5.6-.36a2.144 2.144 0 0 1-.64-1.68v-2.24a2.293 2.293 0 0 1 .64-1.72 2.575 2.575 0 0 1 1.8-.6 2.149 2.149 0 0 1 2.36 2.32v2.2a2.144 2.144 0 0 1-.64 1.68 2.37 2.37 0 0 1-1.72.6 2.386 2.386 0 0 1-1.8-.56zm2.68-.68a1.497 1.497 0 0 0 .32-1v-2.24a1.537 1.537 0 0 0-.32-1.04 1.117 1.117 0 0 0-.88-.36 1.148 1.148 0 0 0-.92.36 1.613 1.613 0 0 0-.32 1.04v2.24a1.425 1.425 0 0 0 .32 1 1.148 1.148 0 0 0 .92.36 1.176 1.176 0 0 0 .88-.36zm-4.16 8.8a10.956 10.956 0 0 1-4.52-1l.92-1.52a8.922 8.922 0 0 0 3.68.76 9.08 9.08 0 1 0-9-10.16l-.36 3 2.12-1.92.92.76-3.8 3.32-3.32-3.52.68-.72 1.8 1.76.32-2.52a10.998 10.998 0 0 1 10.64-9.76 10.721 10.721 0 0 1 10.72 10.72 10.858 10.858 0 0 1-10.8 10.8zm-.6 9.92l-.36-.08c-.16-.04-.2-.08-.24-.08l-.04-.04-.04-.04C-.811 30.44 2.149 6.72 2.309 5.72a.945.945 0 0 1 .92-.8c11.88 0 15-2.92 15.76-4.16 0 0 .6-.76 1.2-.76.56 0 1 .56 1.16.72 1.56 1.52 5.72 4.2 15.48 4.2a.872.872 0 0 1 .88.8c.12 1 3.12 24.68-17.08 34.08h-.08c-.08.04-.12.04-.16.08-.2.08-.28.08-.32.12zm-.32-37.24c-1.72 1.68-5.68 3.76-14.96 3.96h-.76l-.04.76c-.4 6.64.4 22.92 15.68 30.4l.36.16.36-.16c15.28-7.44 16.08-23.72 15.72-30.36l-.04-.76-.76-.04c-8.08-.24-12.32-2.32-14.48-4l-.56-.44z"/></svg>