<svg xmlns="http://www.w3.org/2000/svg" viewBox="0 0 40 40" xmlns:v="https://vecta.io/nano"><path d="M39.631 19.697H15.232a.434.434 0 0 0-.404.404v18.097a.434.434 0 0 0 .404.404h24.359a.405.405 0 0 0 .404-.404V20.101a.352.352 0 0 0-.364-.404zm-1.252 1.616v3.393H16.484v-3.393zm0 4.484v2.424H16.484v-2.424zM16.484 36.906v-7.594h21.895v7.594zM1.74 8.103l.04-.687h.687c8.322-.202 11.876-2.06 13.412-3.555l.444-.444.525.404c1.899 1.495 5.736 3.353 13.008 3.555l.687.04.04.687a38.197 38.197 0 0 1-.727 9.655h1.697a37.83 37.83 0 0 0 .566-11.271.792.792 0 0 0-.808-.687c-8.766 0-12.523-2.383-13.896-3.757-.202-.162-.646-.646-1.131-.646-.566 0-1.091.687-1.091.687C14.506 3.215 11.719 5.8 1.014 5.8a.827.827 0 0 0-.808.727c-.121.848-2.464 19.794 12.361 29.004v-1.979C1.982 26.241 1.417 13.557 1.74 8.103zm5.09 4.161v-.444h.444c5.534-.121 7.918-1.373 8.968-2.383l.323-.323.323.283c1.293 1.01 3.838 2.262 8.685 2.424h.444l.04.444a23.554 23.554 0 0 1-.283 5.332h1.131a24.186 24.186 0 0 0 .162-6.383.558.558 0 0 0-.525-.485c-5.857 0-8.322-1.616-9.291-2.505-.121-.081-.404-.444-.727-.444-.364 0-.727.444-.727.444-.485.727-2.343 2.505-9.453 2.505a.527.527 0 0 0-.525.485c-.081.525-1.495 12.038 6.948 18.421v-1.414c-5.817-4.928-6.14-12.523-5.938-15.956z"/></svg>