<svg width="18" height="17" viewBox="0 0 18 17" fill="none" xmlns="http://www.w3.org/2000/svg">
<path fill-rule="evenodd" clip-rule="evenodd" d="M0.700002 9.42599C0.534316 9.42599 0.400002 9.56031 0.400002 9.726C0.400002 9.89168 0.534316 10.026 0.700002 10.026H2V15.026H0.700002C0.534316 15.026 0.400002 15.1603 0.400002 15.326C0.400002 15.4917 0.534316 15.626 0.700002 15.626H2.3C2.46569 15.626 2.6 15.4917 2.6 15.326V14.924L3.97749 14.924C4.0492 14.9239 4.12035 14.9393 4.18562 14.969L7.86457 16.6546C8.16286 16.7956 8.49714 16.876 8.84972 16.876C9.26037 16.8767 9.66367 16.767 10.0174 16.5584C10.0261 16.5533 10.0345 16.5478 10.0424 16.5419L17.0674 12.1738C17.0755 12.1687 17.0833 12.1634 17.0907 12.1577C17.3365 11.9903 17.5116 11.7374 17.5815 11.4478C17.6531 11.1509 17.6087 10.838 17.4575 10.5727C17.3062 10.3075 17.0595 10.1099 16.7675 10.0204C16.4756 9.93081 16.1605 9.95601 15.8865 10.0908C15.8842 10.092 15.8819 10.0931 15.8796 10.0943L10.6476 12.4996C10.629 12.2092 10.5055 11.9344 10.2985 11.7275C10.0735 11.5024 9.76826 11.376 9.45 11.376H6.67426L5.80102 10.5027C5.66161 10.3635 5.49613 10.2531 5.31404 10.1778C5.13202 10.1025 4.93689 10.0639 4.73993 10.064H2.6V9.726C2.6 9.56031 2.46569 9.42599 2.3 9.42599H0.700002ZM9.94611 12.9135C9.92508 12.9444 9.90107 12.9734 9.87426 13.0003C9.76174 13.1128 9.60913 13.176 9.45 13.176H6.55C6.38431 13.176 6.25 13.3103 6.25 13.476C6.25 13.6417 6.38431 13.776 6.55 13.776H9.45C9.76826 13.776 10.0735 13.6496 10.2985 13.4245C10.3507 13.3723 10.3976 13.3158 10.4388 13.2559L16.1453 10.6326C16.1517 10.6296 16.1579 10.6265 16.164 10.6232C16.2979 10.5611 16.4502 10.5506 16.5916 10.594C16.7374 10.6387 16.8607 10.7374 16.9363 10.8699C17.0118 11.0024 17.034 11.1588 16.9982 11.3071C16.9625 11.4554 16.8715 11.5844 16.7438 11.6679L16.7348 11.674L9.70658 16.0442C9.70256 16.0467 9.69861 16.0493 9.69475 16.052C9.43793 16.1992 9.14683 16.2765 8.85055 16.276C8.59048 16.276 8.34342 16.217 8.12259 16.1129C8.12073 16.112 8.11885 16.1111 8.11696 16.1103L4.43438 14.423C4.29072 14.3575 4.13465 14.3238 3.97679 14.324H2.6V10.664H4.74024L6.12379 11.6741L6.33787 11.8881C6.36755 11.9178 6.4019 11.94 6.43855 11.9546C6.4692 11.9669 6.50234 11.9742 6.53701 11.9757L6.12379 11.6741L6.09542 11.6457L6.55141 11.976H9.45C9.60913 11.976 9.76174 12.0392 9.87426 12.1517C9.98679 12.2642 10.05 12.4169 10.05 12.576C10.05 12.6673 10.0292 12.7565 9.99014 12.8372C9.97171 12.8604 9.95692 12.8862 9.94611 12.9135ZM6.09542 11.6457L4.74024 10.664C4.85846 10.6639 4.97555 10.6871 5.0848 10.7323C5.19406 10.7774 5.29334 10.8437 5.37699 10.9272L6.09542 11.6457Z" fill="white"/>
<path fill-rule="evenodd" clip-rule="evenodd" d="M5.0093 2.44645C5.27825 2.12179 5.70813 1.828 6.34624 1.828C6.91347 1.828 7.37515 1.99841 7.69503 2.31437C8.01484 2.63025 8.18724 3.086 8.18724 3.646C8.18724 4.46511 7.66136 4.94389 7.40859 5.12076C7.38882 5.32477 7.41816 5.56504 7.45416 5.76067C7.47272 5.86149 7.49284 5.94941 7.50833 6.01292C7.51608 6.04467 7.52267 6.0703 7.52735 6.08849L7.53293 6.11033L7.53467 6.11763L7.53531 6.12079L7.5545 6.19279L7.48501 6.27686C7.46589 6.29721 7.16462 6.60116 6.42374 6.63894L6.42107 6.63907L6.29601 6.639C5.62942 6.639 5.34115 6.37219 5.32082 6.35236L5.26891 6.30031V5.66729C5.17044 5.67627 5.07985 5.68096 5.0047 5.68225C4.91893 5.68371 4.8488 5.68086 4.81056 5.67338C4.78504 5.67027 4.746 5.6648 4.71055 5.63376C4.67544 5.60302 4.65073 5.55366 4.63337 5.47922C4.59957 5.33431 4.5874 5.06518 4.61596 4.55787C4.55087 4.53191 4.49506 4.49821 4.45037 4.4646C4.40112 4.42833 4.37484 4.38042 4.36857 4.32351C4.36259 4.26915 4.37546 4.20938 4.39843 4.14678C4.44402 4.02247 4.53739 3.86689 4.64877 3.68413L4.70927 3.56448C4.66205 3.4927 4.6303 3.39138 4.6303 3.263C4.6303 3.19174 4.65971 3.06726 4.71994 2.92348C4.78082 2.77814 4.87514 2.60839 5.0093 2.44645ZM5.02167 3.20893C5.01079 3.24655 5.00752 3.26858 5.00752 3.275C5.00752 3.31318 5.0132 3.33839 5.01889 3.35397C5.02079 3.35916 5.02269 3.3633 5.0244 3.36653L5.23904 3.41525L5.1141 3.60801L4.98867 3.87095C4.91343 3.98701 4.8309 4.12685 4.78679 4.22347C4.79344 4.22496 4.8002 4.22607 4.80701 4.2268L5.01186 4.21038L4.9951 4.42834C4.98285 4.6071 4.97366 4.80438 4.97061 4.97649C4.96803 5.12143 4.96987 5.24596 4.97729 5.32694C5.08287 5.32654 5.24552 5.32362 5.4268 5.30236L5.42871 5.30214L5.63383 5.28572V6.15024C5.74604 6.20537 5.98216 6.31335 6.39254 6.29208C6.79622 6.26971 7.02118 6.16678 7.12681 6.09783C7.10134 5.99347 7.06295 5.82541 7.03719 5.63699C7.00862 5.42796 6.99501 5.19009 7.03388 4.98492L7.05 4.90366L7.12094 4.85141C7.28908 4.75644 7.809 4.36216 7.809 3.659C7.809 3.19223 7.6742 2.83231 7.4281 2.58913C7.1821 2.34604 6.8182 2.213 6.34624 2.213C5.83333 2.213 5.49955 2.45337 5.29242 2.70843C5.18855 2.83634 5.11678 2.96778 5.07107 3.07381C5.04822 3.1268 5.03205 3.17307 5.02167 3.20893Z" fill="white"/>
<path fill-rule="evenodd" clip-rule="evenodd" d="M11.99 3.504C11.3675 3.504 10.9481 3.79779 10.6857 4.12245C10.5549 4.28439 10.4628 4.45413 10.4035 4.59947C10.3447 4.74325 10.316 4.86773 10.316 4.939C10.316 5.06738 10.347 5.16869 10.393 5.24047L10.334 5.36013C10.2254 5.54288 10.1343 5.69846 10.0898 5.82278C10.0674 5.88538 10.0548 5.94514 10.0607 5.99951C10.0668 6.05641 10.0924 6.10432 10.1405 6.1406C10.1841 6.1742 10.2385 6.20791 10.302 6.23387C10.2742 6.74117 10.286 7.01031 10.319 7.15522C10.3359 7.22965 10.36 7.27902 10.3943 7.30976C10.4289 7.3408 10.467 7.34627 10.4919 7.34937C10.5292 7.35685 10.5976 7.35971 10.6812 7.35824C10.7546 7.35696 10.8429 7.35226 10.939 7.34328V7.97631L10.9896 8.02835C11.0095 8.04818 11.2907 8.315 11.941 8.315L12.063 8.31507L12.0656 8.31493C12.7884 8.27716 13.0823 7.9732 13.1009 7.95285L13.1687 7.86879L13.15 7.79679L13.1494 7.79362L13.1477 7.78633L13.1422 7.76449C13.1377 7.7463 13.1312 7.72067 13.1237 7.68892C13.1086 7.62541 13.0889 7.53749 13.0708 7.43666C13.0357 7.24104 13.0071 7.00077 13.0264 6.79675C13.273 6.61988 13.786 6.14111 13.786 5.322C13.786 4.76199 13.6178 4.30624 13.3058 3.99036C12.9938 3.67441 12.5434 3.504 11.99 3.504ZM10.684 4.951C10.684 4.94457 10.6872 4.92254 10.6978 4.88493C10.7079 4.84906 10.7237 4.80279 10.746 4.7498C10.7906 4.64377 10.8606 4.51233 10.9619 4.38442C11.164 4.12937 11.4896 3.889 11.99 3.889C12.4504 3.889 12.8054 4.02204 13.0454 4.26513C13.2855 4.50831 13.417 4.86823 13.417 5.335C13.417 6.03816 12.9098 6.43244 12.7458 6.5274L12.6766 6.57966L12.6608 6.66091C12.6229 6.86609 12.6362 7.10396 12.6641 7.31298C12.6892 7.50141 12.7266 7.66947 12.7515 7.77382C12.6484 7.84277 12.429 7.9457 12.0352 7.96808C11.6348 7.98935 11.4045 7.88136 11.295 7.82624V6.96172L11.0949 6.97813L11.093 6.97835C10.9162 6.99961 10.7575 7.00253 10.6545 7.00293C10.6473 6.92196 10.6455 6.79743 10.648 6.65249C10.651 6.48038 10.6599 6.2831 10.6719 6.10433L10.6882 5.88637L10.4884 5.9028C10.4817 5.90206 10.4752 5.90095 10.4687 5.89947C10.5117 5.80284 10.5922 5.663 10.6656 5.54694L10.788 5.28401L10.9099 5.09125L10.7005 5.04252C10.6988 5.0393 10.6969 5.03516 10.6951 5.02997C10.6895 5.01438 10.684 4.98917 10.684 4.951Z" fill="white"/>
<path fill-rule="evenodd" clip-rule="evenodd" d="M12.03 2.4575C10.0978 2.4575 8.5315 4.02384 8.5315 5.956C8.5315 7.88817 10.0978 9.4545 12.03 9.4545C13.9622 9.4545 15.5285 7.88817 15.5285 5.956C15.5285 4.02384 13.9622 2.4575 12.03 2.4575ZM8.7285 5.956C8.7285 4.13264 10.2066 2.6545 12.03 2.6545C13.8534 2.6545 15.3315 4.13264 15.3315 5.956C15.3315 7.77937 13.8534 9.2575 12.03 9.2575C10.2066 9.2575 8.7285 7.77937 8.7285 5.956Z" fill="white"/>
<path fill-rule="evenodd" clip-rule="evenodd" d="M8.31614 8.04678C7.72708 8.33671 7.06133 8.5 6.35649 8.5C3.95047 8.5 2 6.59721 2 4.25C2 1.90279 3.95047 0 6.35649 0C7.96356 0 9.36738 0.848902 10.1225 2.11213C10.6887 1.83288 11.326 1.67599 12 1.67599C14.3472 1.67599 16.25 3.57878 16.25 5.92599C16.25 8.2732 14.3472 10.176 12 10.176C10.4252 10.176 9.05039 9.31943 8.31614 8.04678ZM2.51253 4.25C2.51253 2.17893 4.23353 0.5 6.35649 0.5C7.77486 0.5 9.01381 1.24942 9.67996 2.36452C9.61127 2.40936 9.54395 2.45614 9.47808 2.50477C8.85431 1.47342 7.70361 0.781509 6.38725 0.781509C4.40666 0.781509 2.80108 2.34784 2.80108 4.28001C2.80108 6.21218 4.40666 7.77851 6.38725 7.77851C6.97224 7.77851 7.52452 7.64186 8.01238 7.3995C8.03705 7.46624 8.06335 7.5322 8.09123 7.59732C7.57008 7.85487 6.98066 8 6.35649 8C4.23353 8 2.51253 6.32107 2.51253 4.25ZM9.31836 2.62866C8.73313 1.64217 7.63963 0.978509 6.38725 0.978509C4.51819 0.978509 3.00302 2.45664 3.00302 4.28001C3.00302 6.10338 4.51819 7.58151 6.38725 7.58151C6.94999 7.58151 7.48066 7.44751 7.94755 7.21044C7.81922 6.80521 7.75 6.37368 7.75 5.92599C7.75 4.59558 8.36131 3.40795 9.31836 2.62866ZM8.25 5.92599C8.25 3.85493 9.92893 2.17599 12 2.17599C14.0711 2.17599 15.75 3.85493 15.75 5.92599C15.75 7.99706 14.0711 9.67599 12 9.67599C9.92893 9.67599 8.25 7.99706 8.25 5.92599Z" fill="white"/>
</svg>
