<svg width="33" height="33" viewBox="0 0 33 33" fill="none" xmlns="http://www.w3.org/2000/svg">
<path d="M1.01603 31.837C1.21103 32.032 1.46703 32.129 1.72303 32.129C1.97903 32.129 2.23503 32.031 2.43103 31.836L16.723 17.527L31.015 31.836C31.21 32.032 31.466 32.129 31.723 32.129C31.979 32.129 32.235 32.031 32.43 31.837C32.821 31.447 32.821 30.814 32.431 30.423L18.153 16.129L32.43 1.836C32.82 1.445 32.82 0.812001 32.429 0.422001C32.037 0.0310006 31.405 0.0310011 31.015 0.423001L16.722 14.732L2.43003 0.423001C2.03903 0.032001 1.40603 0.0320007 1.01603 0.422001C0.625031 0.812001 0.625032 1.445 1.01503 1.836L15.291 16.129L1.01503 30.423C0.625032 30.813 0.625031 31.447 1.01603 31.837Z" fill="black"/>
</svg>
