<svg xmlns="http://www.w3.org/2000/svg" width="19" height="19" xmlns:v="https://vecta.io/nano"><path d="M2.488 1.417C3.432.906 4.723.594 6.14.594s2.708.312 3.651.824 1.574 1.244 1.574 2.097-.635 1.588-1.574 2.097c-.168.091-.347.176-.535.254h1.206c0-.174.141-.315.315-.315s.315.141.315.315c0 .815-.664 1.464-1.535 1.891-.891.437-2.1.699-3.417.699s-2.527-.262-3.418-.699c-.87-.427-1.534-1.077-1.534-1.891 0-.174.141-.315.315-.315s.315.141.315.315h1.205c-.189-.078-.368-.162-.535-.253C1.549 5.102.915 4.369.915 3.515s.635-1.588 1.573-2.098z"/><path fill-rule="evenodd" d="M1.503 7.567c.174 0 .315.141.315.315l.003.065L8.86 9.389l.312-.13c.736-1.652 2.393-2.804 4.318-2.804 2.609 0 4.725 2.115 4.725 4.725s-2.116 4.725-4.725 4.725c-1.051 0-2.021-.343-2.806-.923-.324.393-.817.718-1.4.964h1.178c0-.174.141-.315.315-.315s.315.141.315.315c0 .815-.664 1.464-1.535 1.891-.891.437-2.1.699-3.417.699s-2.527-.262-3.418-.699c-.87-.427-1.534-1.077-1.534-1.891 0-.174.141-.315.315-.315s.315.141.315.315h1.178l-.274-.125c-.87-.427-1.534-1.077-1.534-1.891 0-.174.141-.315.315-.315s.315.141.315.315v.021l1.489.1a5.62 5.62 0 0 1-.585-.246c-.87-.427-1.534-1.077-1.534-1.891 0-.174.141-.315.315-.315s.315.141.315.315l.002.057 7.333 1.328.091-.043a4.69 4.69 0 0 1-.395-1.179c-.78.261-1.713.41-2.71.41-1.318 0-2.527-.261-3.418-.698-.87-.427-1.534-1.076-1.534-1.892 0-.174.141-.315.315-.315s.315.141.315.315l.003.074 6.688 1.554.262-.087-.007-.258c0-.392.048-.772.137-1.136-.792.273-1.745.428-2.762.428-1.318 0-2.527-.261-3.418-.699-.87-.427-1.534-1.077-1.534-1.891 0-.174.141-.315.315-.315zm8.057 6.237c-.492.242-1.081.43-1.732.55l2.308.155c-.214-.215-.407-.451-.576-.704z"/></svg>