<svg width="20" height="20" viewBox="0 0 20 20" fill="none" xmlns="http://www.w3.org/2000/svg">
<path d="M12.9 0.4C11.9 0.1 11 0 10 0C9 0 8.1 0.1 7.2 0.4C3 1.6 0 5.5 0 10C0 15.5 4.5 20 10 20C15.5 20 20 15.5 20 10C20 5.5 17 1.7 12.9 0.4ZM1.1 10.4H4.6C4.6 11.6 4.8 12.7 5 13.7H1.9C1.4 12.7 1.2 11.6 1.1 10.4ZM10.6 4.9V1.1C11.2 1.1 11.7 1.2 12.3 1.4C12.6 1.9 13.3 3.1 13.8 5L10.6 4.9ZM14 6C14.2 7 14.3 8.1 14.3 9.4H10.5V6H14ZM9.5 4.9H6.4C6.9 3.1 7.6 1.9 7.9 1.4C8.4 1.3 9 1.2 9.5 1.2V4.9ZM9.5 6V9.4H5.7C5.7 8.1 5.8 7 6 6H9.5ZM4.6 9.4H1.1C1.2 8.2 1.5 7 2.1 6H4.9C4.7 7 4.6 8.1 4.6 9.4ZM5.7 10.5H9.4V13.8H6.1C5.9 12.7 5.8 11.7 5.7 10.5ZM9.5 14.8V18.8C8.9 18.8 8.4 18.7 7.8 18.5C7.6 18.2 6.9 16.8 6.4 14.7L9.5 14.8ZM10.6 14.8H13.7C13.2 16.9 12.5 18.2 12.3 18.5C11.7 18.6 11.2 18.7 10.6 18.8V14.8ZM10.6 13.7V10.4H14.4C14.3 11.6 14.2 12.7 14 13.7H10.6ZM15.4 10.5H18.9C18.8 11.7 18.5 12.8 18.1 13.8H15.1C15.2 12.8 15.4 11.7 15.4 10.5ZM15.4 9.4C15.4 8.1 15.3 7 15.1 6H18C18.5 7 18.8 8.2 18.9 9.4H15.4ZM17.3 5H14.9C14.6 3.7 14.2 2.8 13.8 2C15.2 2.6 16.4 3.7 17.3 5ZM6.2 1.9C5.9 2.7 5.5 3.6 5.2 4.9H2.8C3.6 3.6 4.8 2.6 6.2 1.9ZM2.5 14.8H5.2C5.5 16.2 5.9 17.3 6.3 18.1C4.7 17.4 3.4 16.2 2.5 14.8ZM13.7 18.1C14 17.4 14.4 16.3 14.8 14.9H17.4C16.5 16.3 15.2 17.4 13.7 18.1Z" fill="white"/>
</svg>
