<svg xmlns="http://www.w3.org/2000/svg" viewBox="0 0 40 40" xmlns:v="https://vecta.io/nano"><path d="M19.98 28.152a4.254 4.254 0 0 1-1.359-1.039l.919-.879a3.045 3.045 0 0 0 2.278 1.039 2.153 2.153 0 0 0 1.319-.36 1.196 1.196 0 0 0 .519-1.079v-.32a1.137 1.137 0 0 0-.599-1.079 2.755 2.755 0 0 0-1.279-.32h-.839v-1.159h.839a2.027 2.027 0 0 0 1.119-.28.959.959 0 0 0 .48-.879v-.28a.964.964 0 0 0-.44-.879 1.941 1.941 0 0 0-1.119-.28 2.866 2.866 0 0 0-1.159.24 3.477 3.477 0 0 0-1.039.719l-.879-.879a4.603 4.603 0 0 1 1.399-.959 4.249 4.249 0 0 1 1.798-.36 3.677 3.677 0 0 1 1.518.28 2.473 2.473 0 0 1 1.079.799 1.707 1.707 0 0 1 .4 1.159v.519a1.407 1.407 0 0 1-.48 1.039 2.089 2.089 0 0 1-1.079.599 2.417 2.417 0 0 1 .839.32 2.323 2.323 0 0 1 .719.679 1.555 1.555 0 0 1 .28.919v.599a2.065 2.065 0 0 1-.44 1.279 2.834 2.834 0 0 1-1.199.919 3.997 3.997 0 0 1-1.718.32 5.212 5.212 0 0 1-1.878-.4zM5.914 34.585a.819.819 0 0 1-.839-.839V5.534a.819.819 0 0 1 .839-.839h4.955V3.017A2.507 2.507 0 0 1 13.387.5h1.638a2.507 2.507 0 0 1 2.517 2.518v1.678h9.95V3.017A2.507 2.507 0 0 1 30.01.5h1.638a2.507 2.507 0 0 1 2.517 2.518v1.678h4.995a.819.819 0 0 1 .839.839v28.212a.819.819 0 0 1-.839.839zm.839-1.678h31.528V14.645H6.753zm0-19.94h31.528l.04-.559V6.374h-4.156v1.678a2.507 2.507 0 0 1-2.517 2.517H30.01a2.507 2.507 0 0 1-2.517-2.517V6.374h-9.91v1.678a2.507 2.507 0 0 1-2.517 2.517h-1.638a2.507 2.507 0 0 1-2.517-2.517V6.374H6.753zM29.97 2.218a.802.802 0 0 0-.799.799v4.955a.802.802 0 0 0 .799.799h1.638a.802.802 0 0 0 .799-.799V3.017a.802.802 0 0 0-.799-.799zm-16.583 0a.802.802 0 0 0-.799.799v4.955a.802.802 0 0 0 .799.799h1.638a.802.802 0 0 0 .799-.799V3.017a.802.802 0 0 0-.799-.799zM.839 39.501a.819.819 0 0 1-.839-.84V10.45a.819.819 0 0 1 .839-.839 1.018 1.018 0 0 1 .839.679v27.532h32.687a1.266 1.266 0 0 1 .519.839.819.819 0 0 1-.839.839z"/></svg>