<svg xmlns="http://www.w3.org/2000/svg" width="21" height="14" fill="#fff" xmlns:v="https://vecta.io/nano"><path d="M16.8 7.095a.3.3 0 0 1 .3.3v1.8h1.8a.3.3 0 0 1 0 .6h-2.1a.3.3 0 0 1-.3-.3v-2.1a.3.3 0 0 1 .3-.3z"/><path fill-rule="evenodd" d="M15.7 4.55v1.013h.6V2.1A1.3 1.3 0 0 0 15 .8H1.6A1.3 1.3 0 0 0 .3 2.1v7.6A1.3 1.3 0 0 0 1.6 11h11.6v-.288a3.8 3.8 0 0 0 3.6 2.583 3.8 3.8 0 0 0 3.8-3.8 3.8 3.8 0 0 0-3.8-3.8 3.8 3.8 0 0 0-3.8 3.8 3.8 3.8 0 0 0 .109.905H1.6a.7.7 0 0 1-.7-.7V4.55h14.8zM1.6 1.4a.7.7 0 0 0-.7.7v1.45h14.8V2.1a.7.7 0 0 0-.7-.7H1.6zm14.1 2.55H.9v.2h14.8v-.2zm1.1 2.345a3.2 3.2 0 0 0-3.2 3.2 3.2 3.2 0 0 0 3.2 3.2 3.2 3.2 0 0 0 3.2-3.2 3.2 3.2 0 0 0-3.2-3.2z"/><path d="M1.8 7.833a.2.2 0 0 1 .2-.2h6.125a.2.2 0 1 1 0 .4H2a.2.2 0 0 1-.2-.2zm0 1.2a.2.2 0 0 1 .2-.2h4.4a.2.2 0 1 1 0 .4H2a.2.2 0 0 1-.2-.2z"/></svg>