<svg width="100" height="100" viewBox="0 0 100 100" fill="none" xmlns="http://www.w3.org/2000/svg">
<path d="M50 100C22.4 100 0 77.6 0 50C0 22.4 22.4 0 50 0C77.6 0 100 22.4 100 50C100 66.7 91.7 81.9 77.1 91.9C69.1 97.2 59.7 100 50 100ZM31.1 88.3C37 91.2 43.5 92.8 50.1 92.8C57.1 92.8 64.1 91.1 70.2 87.7H70.6L70.7 87.2V76.4C70.9 71.6 69.7 67.6 67.1 64.6C63.8 60.9 58.2 59 50.4 59C42.7 59 37.1 60.9 33.9 64.6C31.4 67.8 30.2 71.8 30.5 75.8V88.2H31.1V88.3ZM50.1 7.1C37.4 7.1 25.5 12.6 17.3 22.3C10 31.1 6.4 42.1 7.4 53.5C8.4 64.9 13.7 75.2 22.5 82.6L23.5 83.6V76.5C23.4 76.1 22.4 67 28.5 59.9C31.1 57 34.4 54.9 38.1 53.7L38.4 53.6L39 53.3L38.4 52.7C34.9 48.8 33 43.7 33.1 38.4C33.1 27.5 40.6 18.7 49.9 18.7C59.2 18.7 66.7 27.6 66.7 38.4C66.8 43.5 65 48.5 61.7 52.4L61.1 53L61.9 53.4C66.1 54.6 69.7 56.8 72.6 60C78 66.1 78.1 73.7 77.8 76.6V82L78.9 81.6L79 81.5C80.4 80.3 81.6 78.9 82.8 77.5C90.2 68.8 93.7 57.7 92.7 46.3C91.7 34.9 86.4 24.6 77.6 17.2C70 10.7 60.2 7.1 50.1 7.1ZM49.8 25.9C44.5 25.9 40.2 31.5 40.2 38.5C40.2 45.3 44.5 50.9 49.8 51.1C55.1 51.1 59.4 45.5 59.4 38.5C59.4 31.5 55.1 25.9 49.8 25.9Z" fill="white"/>
</svg>
