<svg width="71" height="71" viewBox="0 0 71 71" fill="none" xmlns="http://www.w3.org/2000/svg">
<path d="M69.9877 65.0787L49.4157 44.5137C53.042 39.8404 55.2053 33.9746 55.2053 27.6026C55.2053 12.3557 42.8496 0 27.6026 0C12.3557 0 0 12.3557 0 27.6026C0 42.8496 12.3557 55.2053 27.6026 55.2053C33.9746 55.2053 39.8404 53.042 44.5137 49.4157L65.0787 69.9808C66.4308 71.3328 68.6287 71.3328 69.9808 69.9808C71.3398 68.6287 71.3398 66.4377 69.9877 65.0787ZM35.6456 46.6492C33.101 47.7239 30.3969 48.2717 27.6026 48.2717C24.8084 48.2717 22.1043 47.7239 19.5597 46.6492C17.0982 45.6092 14.8864 44.1185 12.9866 42.2187C11.0868 40.3188 9.5961 38.107 8.55606 35.6456C7.48135 33.101 6.93359 30.3969 6.93359 27.6026C6.93359 24.8084 7.48135 22.1043 8.55606 19.5597C9.5961 17.0982 11.0868 14.8864 12.9866 12.9866C14.8864 11.0868 17.0982 9.59609 19.5597 8.55606C22.1043 7.48135 24.8084 6.93359 27.6026 6.93359C30.3969 6.93359 33.101 7.48135 35.6456 8.55606C38.107 9.59609 40.3189 11.0868 42.2187 12.9866C44.1185 14.8864 45.6092 17.0982 46.6492 19.5597C47.7239 22.1043 48.2717 24.8084 48.2717 27.6026C48.2717 30.3969 47.7239 33.101 46.6492 35.6456C45.6092 38.107 44.1185 40.3188 42.2187 42.2187C40.3189 44.1185 38.107 45.6092 35.6456 46.6492Z" fill="black"/>
</svg>
