<svg xmlns="http://www.w3.org/2000/svg" viewBox="0 0 40 40" xmlns:v="https://vecta.io/nano"><path d="M24.3 11.119v3.273h-3.277v1.484H24.3v3.274h1.48v-3.274h3.274v-1.484H25.78v-3.273H24.3zM40 .243H18.266v6.856H9.634v9.02h1.418V8.517h21.001v24.437h-8.075v1.418h9.493v-9.369H40zm-1.418 23.342h-5.111V7.099H19.684V1.661h18.898zm-25.851-6.45a10.926 10.926 0 0 0-5.049 1.237 10.94 10.94 0 1 0 8.296 20.152 10.941 10.941 0 0 0-3.247-21.389zm-11.6 11.68a9.793 9.793 0 0 1 1.891-5.769 10.931 10.931 0 0 0 6.436 15.465 9.823 9.823 0 0 1-8.327-9.696zm14.485 8.641l-.004-.009c-.013.009-.027.013-.04.022a9.703 9.703 0 0 1-2.836.42 9.81 9.81 0 0 1-4.621-18.465l.102-.031-.004-.018a9.809 9.809 0 1 1 7.404 18.081zm-2.885-17.935a8.557 8.557 0 1 0 8.557 8.557 8.567 8.567 0 0 0-8.557-8.557zm0 16.406a7.85 7.85 0 1 1 7.85-7.85 7.858 7.858 0 0 1-7.85 7.85zm.133-13.314a3.541 3.541 0 0 0-3.468 2.911 1.018 1.018 0 0 0 .181.618l-.15.309c-.473.786-.747 1.281-.451 1.502a1.438 1.438 0 0 0 .402.216c-.128 2.248.093 2.284.322 2.324a7.028 7.028 0 0 0 1.029-.018v1.409l.084.084a2.805 2.805 0 0 0 1.948.583l.252-.004a3.193 3.193 0 0 0 2.138-.724l.11-.119-.049-.159a6.783 6.783 0 0 1-.265-2.182 3.754 3.754 0 0 0 1.621-3.035 3.405 3.405 0 0 0-3.706-3.715zm1.674 6.348l-.106.066-.022.124a6.451 6.451 0 0 0 .212 2.372 3.151 3.151 0 0 1-1.634.455 2.827 2.827 0 0 1-1.687-.349v-1.776l-.314.031-1.043.053a14.654 14.654 0 0 1 .022-1.992l.022-.327-.327.022a.416.416 0 0 1-.194-.053 8.234 8.234 0 0 1 .459-.853l.256-.535.186-.292-.318-.088a.399.399 0 0 1-.084-.296 2.983 2.983 0 0 1 2.898-2.341 2.863 2.863 0 0 1 3.145 3.145 3.206 3.206 0 0 1-1.471 2.633z"/></svg>