<svg width="22" height="21" viewBox="0 0 22 21" fill="none" xmlns="http://www.w3.org/2000/svg">
<path d="M11.4727 0.769483C11.3867 0.603902 11.2156 0.5 11.029 0.5C10.8424 0.5 10.6713 0.603902 10.5853 0.769483L7.45532 6.794H1.00001C0.804623 6.794 0.627139 6.90781 0.545613 7.08537C0.464088 7.26293 0.493458 7.47172 0.620808 7.61989L5.32541 13.094L3.20551 19.9187C3.14559 20.1116 3.20764 20.3216 3.3628 20.451C3.51795 20.5804 3.73572 20.6037 3.91473 20.5101L11.027 16.7903L18.0121 20.5084C18.191 20.6036 18.4097 20.5814 18.5658 20.4522C18.722 20.3229 18.7846 20.1122 18.7245 19.9187L16.6053 13.0962L21.3769 7.62256C21.5057 7.4748 21.5363 7.2654 21.4551 7.08697C21.374 6.90854 21.196 6.794 21 6.794H14.6027L11.4727 0.769483Z" fill="black"/>
</svg>
