<svg width="22" height="21" viewBox="0 0 22 21" fill="none" xmlns="http://www.w3.org/2000/svg">
<path fill-rule="evenodd" clip-rule="evenodd" d="M11.0291 0.25C11.309 0.250004 11.5656 0.40585 11.6946 0.654211L14.7548 6.54405H21C21.294 6.54405 21.5609 6.71586 21.6827 6.98349C21.8044 7.25113 21.7586 7.56522 21.5654 7.78686L16.8854 13.1558L18.9634 19.8447C19.0536 20.135 18.9596 20.4511 18.7254 20.645C18.4912 20.8388 18.1631 20.8721 17.8948 20.7292L11.026 17.0728L4.03068 20.7318C3.76216 20.8722 3.4355 20.8373 3.20276 20.6432C2.97001 20.4491 2.87693 20.1341 2.96684 19.8447L5.04589 13.1525L0.431196 7.78289C0.240175 7.56062 0.196121 7.24745 0.31841 6.9811C0.440699 6.71476 0.706925 6.54405 0.999999 6.54405H7.30317L10.3636 0.654191C10.4926 0.405835 10.7492 0.249996 11.0291 0.25ZM11.0291 2.62667L8.42419 7.63986C8.29514 7.88821 8.03855 8.04405 7.75867 8.04405H2.63348L6.4541 12.4897C6.62247 12.6856 6.67817 12.9543 6.60153 13.201L4.93478 18.5661L10.6815 15.5602C10.9009 15.4454 11.1629 15.4464 11.3815 15.5628L16.99 18.5483L15.3288 13.201C15.2516 12.9525 15.3087 12.6818 15.4796 12.4857L19.3513 8.04405H14.2993C14.0194 8.04405 13.7628 7.8882 13.6338 7.63984L11.0291 2.62667Z" fill="white"/>
</svg>
