<svg width="18" height="19" viewBox="0 0 18 19" fill="none" xmlns="http://www.w3.org/2000/svg">
<path fill-rule="evenodd" clip-rule="evenodd" d="M5.14 0.836761C3.73099 0.836761 2.47382 1.09342 1.57591 1.58005C0.663745 2.0755 0.0999985 2.76065 0.0999985 3.515C0.0999985 4.26934 0.662495 4.95334 1.57554 5.44974C2.48784 5.94417 3.7478 6.251 5.14 6.251C6.53215 6.251 7.79182 5.94439 8.70323 5.44987C9.61642 4.95443 10.18 4.26942 10.18 3.515C10.18 2.76057 9.61642 2.07556 8.70323 1.58013C7.8062 1.09341 6.54899 0.836761 5.14 0.836761ZM1.8762 2.13388C2.69428 1.69054 3.84907 1.37386 5.14 1.37386C6.43101 1.37386 7.5858 1.69058 8.40277 2.13387C9.22957 2.58243 9.55 3.09942 9.55 3.515C9.55 3.93057 9.22959 4.44756 8.40279 4.89612C7.60019 5.3316 6.44784 5.621 5.14 5.621C3.83226 5.621 2.67991 5.33165 1.87622 4.89612C1.04944 4.44656 0.729999 3.93061 0.729999 3.515C0.729999 3.09937 1.05047 2.58242 1.8762 2.13388Z" fill="white"/>
<path d="M0.503004 5.551C0.676973 5.551 0.818004 5.69203 0.818004 5.866C0.818004 6.30725 1.19195 6.79526 1.99989 7.19171C2.78722 7.57804 3.89701 7.826 5.14 7.826C6.38249 7.826 7.49228 7.57805 8.27976 7.1917C9.08789 6.79521 9.462 6.30719 9.462 5.866C9.462 5.69203 9.60303 5.551 9.777 5.551C9.95097 5.551 10.092 5.69203 10.092 5.866C10.092 6.6808 9.42761 7.33028 8.55725 7.75729C7.66623 8.19444 6.45752 8.456 5.14 8.456C3.822 8.456 2.61329 8.19445 1.72237 7.75729C0.85206 7.33024 0.188004 6.68074 0.188004 5.866C0.188004 5.69203 0.329034 5.551 0.503004 5.551Z" fill="white"/>
<path d="M11.3039 8.49319C11.2597 8.4489 11.1997 8.42401 11.1371 8.424C11.0744 8.42398 11.0144 8.44885 10.9701 8.49312L9.80312 9.66012C9.71096 9.75228 9.71096 9.90171 9.80312 9.99387C9.89529 10.086 10.0447 10.086 10.1369 9.99387L10.901 9.22975V12.3C10.901 12.4303 11.0067 12.536 11.137 12.536C11.2673 12.536 11.373 12.4303 11.373 12.3V9.2301L12.1361 9.9938C12.2282 10.086 12.3776 10.0861 12.4698 9.99394C12.562 9.90182 12.5621 9.75239 12.4699 9.66019L11.3039 8.49319Z" fill="white"/>
<path d="M14.018 10.06C14.018 9.92966 13.9123 9.824 13.782 9.824C13.6517 9.824 13.546 9.92966 13.546 10.06V13.1306L12.7818 12.367C12.6896 12.2749 12.5402 12.275 12.4481 12.3672C12.3559 12.4594 12.356 12.6088 12.4482 12.7009L13.6152 13.8669C13.6595 13.9112 13.7195 13.936 13.7822 13.936C13.8448 13.936 13.9048 13.911 13.949 13.8667L15.114 12.6997C15.2061 12.6075 15.206 12.4581 15.1137 12.366C15.0215 12.2739 14.8721 12.274 14.78 12.3663L14.018 13.1295V10.06Z" fill="white"/>
<path fill-rule="evenodd" clip-rule="evenodd" d="M0.503004 7.567C0.676973 7.567 0.818004 7.70803 0.818004 7.882C0.818004 8.32325 1.19195 8.81126 1.99989 9.20771C2.78722 9.59404 3.89701 9.842 5.14 9.842C6.32617 9.842 7.39209 9.61674 8.17164 9.25946C8.90765 7.60701 10.5643 6.455 12.49 6.455C15.0995 6.455 17.215 8.57046 17.215 11.18C17.215 13.7895 15.0995 15.905 12.49 15.905C11.4393 15.905 10.4686 15.562 9.68397 14.9819C9.32343 15.4199 8.75293 15.7727 8.08061 16.0271C7.25739 16.3386 6.23769 16.52 5.14 16.52C3.822 16.52 2.61329 16.2585 1.72237 15.8213C0.85206 15.3942 0.188004 14.7448 0.188004 13.93C0.188004 13.756 0.329034 13.615 0.503004 13.615C0.676973 13.615 0.818004 13.756 0.818004 13.93C0.818004 14.3713 1.19195 14.8593 1.99989 15.2557C2.78722 15.6421 3.89701 15.89 5.14 15.89C6.17232 15.89 7.11512 15.7189 7.85764 15.4379C8.4867 15.1998 8.94257 14.8947 9.20322 14.5745C8.9627 14.3416 8.74687 14.0833 8.56002 13.804C7.66768 14.2421 6.45708 14.504 5.14 14.504C3.822 14.504 2.61329 14.2425 1.72237 13.8053C0.85206 13.3782 0.188004 12.7287 0.188004 11.914C0.188004 11.74 0.329034 11.599 0.503004 11.599C0.676973 11.599 0.818004 11.74 0.818004 11.914C0.818004 12.3552 1.19195 12.8433 1.99989 13.2397C2.78722 13.626 3.89701 13.874 5.14 13.874C6.36668 13.874 7.46146 13.6321 8.24469 13.2568C8.06406 12.8882 7.93 12.4927 7.8502 12.0779C7.07021 12.3387 6.13706 12.488 5.14 12.488C3.82205 12.488 2.61334 12.2267 1.7224 11.7897C0.852002 11.3627 0.188004 10.7132 0.188004 9.898C0.188004 9.72403 0.329034 9.583 0.503004 9.583C0.676973 9.583 0.818004 9.72403 0.818004 9.898C0.818004 10.3398 1.19201 10.8278 1.99986 11.2241C2.78717 11.6103 3.89696 11.858 5.14 11.858C6.13356 11.858 7.04367 11.6999 7.77194 11.4382C7.76733 11.3527 7.765 11.2666 7.765 11.18C7.765 10.7883 7.81266 10.4078 7.90249 10.0439C7.11053 10.3165 6.1574 10.472 5.14 10.472C3.822 10.472 2.61329 10.2105 1.72237 9.77329C0.85206 9.34624 0.188004 8.69674 0.188004 7.882C0.188004 7.70803 0.329034 7.567 0.503004 7.567ZM8.395 11.18C8.395 8.9184 10.2284 7.085 12.49 7.085C14.7516 7.085 16.585 8.9184 16.585 11.18C16.585 13.4416 14.7516 15.275 12.49 15.275C10.2284 15.275 8.395 13.4416 8.395 11.18Z" fill="white"/>
<path d="M0.818004 15.946C0.818004 15.772 0.676973 15.631 0.503004 15.631C0.329034 15.631 0.188004 15.772 0.188004 15.946C0.188004 16.7607 0.85206 17.4102 1.72237 17.8373C2.61328 18.2745 3.822 18.536 5.14 18.536C6.45752 18.536 7.66623 18.2744 8.55725 17.8373C9.42761 17.4103 10.092 16.7608 10.092 15.946C10.092 15.772 9.95097 15.631 9.777 15.631C9.60303 15.631 9.462 15.772 9.462 15.946C9.462 16.3872 9.08789 16.8752 8.27976 17.2717C7.49228 17.658 6.38249 17.906 5.14 17.906C3.89701 17.906 2.78722 17.658 1.99989 17.2717C1.19195 16.8753 0.818004 16.3872 0.818004 15.946Z" fill="white"/>
</svg>
